<svg width="800px" height="800px" viewBox="0 0 24 24" fill="none" xmlns="http://www.w3.org/2000/svg">
<path d="M4 16.3333L2.56944 15.5C1.83333 15.0556 1.83333 14.0556 2.56944 13.6111L4 12.7778" stroke="#1C274C" stroke-width="1.5" stroke-linecap="round"/>
<path d="M20 16.3333L21.4306 15.5C22.1667 15.0556 22.1667 14.0556 21.4306 13.6111L20 12.7778" stroke="#1C274C" stroke-width="1.5" stroke-linecap="round"/>
<path d="M12 21V18.5" stroke="#1C274C" stroke-width="1.5" stroke-linecap="round"/>
<path d="M12 5.5V3" stroke="#1C274C" stroke-width="1.5" stroke-linecap="round"/>
<path d="M12 18.5C15.866 18.5 19 15.366 19 11.5C19 7.63401 15.866 4.5 12 4.5C8.13401 4.5 5 7.63401 5 11.5C5 15.366 8.13401 18.5 12 18.5Z" stroke="#1C274C" stroke-width="1.5"/>
<path d="M12 15.5C14.2091 15.5 16 13.7091 16 11.5C16 9.29086 14.2091 7.5 12 7.5C9.79086 7.5 8 9.29086 8 11.5C8 13.7091 9.79086 15.5 12 15.5Z" stroke="#1C274C" stroke-width="1.5"/>
</svg> 